<svg xmlns="http://www.w3.org/2000/svg" viewBox="0 0 1000 724" width="1000" height="724" role="img">
<defs><linearGradient id="bg" x1="0" y1="0" x2="1" y2="1"><stop offset="0" stop-color="#fffbeb"/><stop offset="1" stop-color="#ffe4e6"/></linearGradient><radialGradient id="glow" cx="0.5" cy="0.32" r="0.8"><stop offset="0" stop-color="#ffffff" stop-opacity="0.55"/><stop offset="1" stop-color="#ffffff" stop-opacity="0"/></radialGradient></defs>
<rect width="1000" height="724" fill="url(#bg)"/>
<rect width="1000" height="724" fill="url(#glow)"/>
<g transform="translate(70,60) rotate(12)" fill="#1f2937" opacity="0.1"><rect x="-5.333333333333333" y="-16" width="10.666666666666666" height="32" rx="3"/><rect x="-16" y="-5.333333333333333" width="32" height="10.666666666666666" rx="3"/></g>
<g transform="translate(930,120) rotate(12)" fill="#1f2937" opacity="0.08"><rect x="-7.333333333333333" y="-22" width="14.666666666666666" height="44" rx="3"/><rect x="-22" y="-7.333333333333333" width="44" height="14.666666666666666" rx="3"/></g>
<g transform="translate(60,604) rotate(12)" fill="#1f2937" opacity="0.08"><rect x="-6.666666666666667" y="-20" width="13.333333333333334" height="40" rx="3"/><rect x="-20" y="-6.666666666666667" width="40" height="13.333333333333334" rx="3"/></g>
<g transform="translate(940,654) rotate(12)" fill="#1f2937" opacity="0.1"><rect x="-4.666666666666667" y="-14" width="9.333333333333334" height="28" rx="3"/><rect x="-14" y="-4.666666666666667" width="28" height="9.333333333333334" rx="3"/></g>
<path d="M 0 604 Q 500 574 1000 604 L 1000 724 L 0 724 Z" fill="#ffffff" opacity="0.25"/>
<path d="M 0 604 Q 500 574 1000 604" fill="none" stroke="#1f2937" stroke-width="3" opacity="0.35"/>
<g transform="translate(28,28)"><rect x="0" y="0" width="190" height="36" rx="8" fill="#0f172a" opacity="0.85"/><text x="95" y="24" text-anchor="middle" font-family="Verdana,sans-serif" font-size="16" font-weight="700" letter-spacing="1" fill="#ffffff">O LUGAR CERTO</text></g>
<g transform="translate(180.0,698.0) scale(0.82)" stroke="#1f2937" stroke-width="3" stroke-linejoin="round"><path d="M -62 -8 Q -70 -150 0 -158 Q 70 -150 62 -8 Z" fill="#2f4ba0"/><rect x="-15" y="-205" width="30" height="35" rx="10" fill="#e0a878"/><circle cx="0" cy="-250" r="46" fill="#e0a878"/><circle cx="-46" cy="-248" r="9" fill="#e0a878"/><circle cx="46" cy="-248" r="9" fill="#e0a878"/><circle cx="-34" cy="-278" r="22" fill="#c65a27"/><circle cx="-8" cy="-292" r="24" fill="#c65a27"/><circle cx="20" cy="-286" r="22" fill="#c65a27"/><circle cx="40" cy="-262" r="20" fill="#c65a27"/><circle cx="-44" cy="-252" r="18" fill="#c65a27"/><circle cx="0" cy="-250" r="46" fill="#e0a878" stroke="none"/><path d="M -44 -262 Q 0 -300 44 -262" fill="#c65a27" stroke="none"/><circle cx="-16" cy="-252" r="4.5" fill="#1f2937" stroke="none"/><circle cx="16" cy="-252" r="4.5" fill="#1f2937" stroke="none"/><path d="M -10 -236 Q 0 -228 10 -236" fill="none" stroke="#1f2937" stroke-width="3"/></g>
<g transform="translate(820.0,698.0) scale(1)" stroke="#1f2937" stroke-width="3" stroke-linejoin="round"><circle cx="0" cy="-250" r="66" fill="#1b1410"/><path d="M -62 -8 Q -70 -150 0 -158 Q 70 -150 62 -8 Z" fill="#ffffff"/><path d="M -62 -8 Q -70 -150 0 -158 Q 70 -150 62 -8 Z" fill="#ffffff"/><path d="M 0 -158 L -22 -40 M 0 -158 L 22 -40" stroke="#cbd5e1" stroke-width="3" fill="none"/><path d="M 0 -158 L -26 -120 L 0 -110 L 26 -120 Z" fill="#bfdbfe"/><path d="M -18 -150 C -40 -120 -36 -70 -8 -64" fill="none" stroke="#94a3b8" stroke-width="6"/><path d="M 18 -150 C 40 -120 36 -70 8 -64" fill="none" stroke="#94a3b8" stroke-width="6"/><circle cx="0" cy="-58" r="10" fill="#cbd5e1"/><rect x="-15" y="-205" width="30" height="35" rx="10" fill="#7a5234"/><circle cx="0" cy="-250" r="46" fill="#7a5234"/><circle cx="-46" cy="-248" r="9" fill="#7a5234"/><circle cx="46" cy="-248" r="9" fill="#7a5234"/><path d="M -44 -262 Q 0 -300 44 -262 L 44 -250 Q 0 -270 -44 -250 Z" fill="#1b1410" stroke="none"/><circle cx="-16" cy="-252" r="4.5" fill="#1f2937" stroke="none"/><circle cx="16" cy="-252" r="4.5" fill="#1f2937" stroke="none"/><path d="M -10 -236 Q 0 -228 10 -236" fill="none" stroke="#1f2937" stroke-width="3"/></g>
<g transform="rotate(-1.1 500 132.75)"><rect x="140" y="86" width="720" height="93.5" rx="34" fill="#ffffff" stroke="#94a3b8" stroke-width="4" stroke-dasharray="2 10" stroke-linecap="round"/><circle cx="180" cy="195.5" r="10" fill="#ffffff" stroke="#94a3b8" stroke-width="3"/><circle cx="162" cy="215.5" r="6" fill="#ffffff" stroke="#94a3b8" stroke-width="3"/><text x="500" y="132.8" text-anchor="middle" font-family="'Comic Sans MS','Segoe Print',Verdana,sans-serif" font-size="30" font-weight="600" font-style="italic" fill="#1f2937"><tspan x="500" dy="0">Então o que a gente faz com eles?</tspan></text><g transform="translate(154,82)"><rect x="0" y="-26" width="59" height="28" rx="14" fill="#f97316"/><text x="29.5" y="-6" text-anchor="middle" font-family="Verdana,sans-serif" font-size="15" font-weight="700" fill="#ffffff">Teo</text></g></g>
<g transform="rotate(1.1 500 313.75)"><rect x="140" y="229.5" width="720" height="168.5" rx="26" fill="#ffffff" stroke="#1f2937" stroke-width="4"/><path d="M 804 396 L 820 424 L 836 396 Z" fill="#ffffff" stroke="#1f2937" stroke-width="4"/><rect x="806" y="390" width="28" height="8" fill="#ffffff" stroke="none"/><text x="500" y="276.3" text-anchor="middle" font-family="'Comic Sans MS','Segoe Print',Verdana,sans-serif" font-size="30" font-weight="600" font-style="normal" fill="#1f2937"><tspan x="500" dy="0">Leve a um ponto de coleta! Muitas</tspan><tspan x="500" dy="37.5">farmácias e postos de saúde recebem os</tspan><tspan x="500" dy="37.5">remédios vencidos.</tspan></text><g transform="translate(154,225.5)"><rect x="0" y="-26" width="92" height="28" rx="14" fill="#059669"/><text x="46" y="-6" text-anchor="middle" font-family="Verdana,sans-serif" font-size="15" font-weight="700" fill="#ffffff">Milena</text></g></g>
</svg>